<mxfile host="app.diagrams.net" modified="2023-09-05T09:31:49.148Z" agent="Mozilla/5.0 (X11; Linux x86_64) AppleWebKit/537.36 (KHTML, like Gecko) Chrome/116.0.0.0 Safari/537.36" etag="xWMD53MXf6aLVjG7djjL" version="21.6.1" type="device" pages="6">
  <diagram name="Push" id="-GGrVfZBKPNpTzEQG8Yc">
    <mxGraphModel dx="2074" dy="1146" grid="1" gridSize="10" guides="1" tooltips="1" connect="1" arrows="1" fold="1" page="1" pageScale="1" pageWidth="850" pageHeight="1100" math="0" shadow="0">
      <root>
        <mxCell id="0" />
        <mxCell id="1" parent="0" />
        <mxCell id="Jj48SsT-pPuqCzuqrsi4-1" value="0x1234" style="rounded=0;whiteSpace=wrap;html=1;" vertex="1" parent="1">
          <mxGeometry x="365" y="130" width="120" height="60" as="geometry" />
        </mxCell>
        <mxCell id="Jj48SsT-pPuqCzuqrsi4-2" value="0x5678" style="rounded=0;whiteSpace=wrap;html=1;" vertex="1" parent="1">
          <mxGeometry x="365" y="190" width="120" height="60" as="geometry" />
        </mxCell>
        <mxCell id="Jj48SsT-pPuqCzuqrsi4-3" value="" style="rounded=0;whiteSpace=wrap;html=1;" vertex="1" parent="1">
          <mxGeometry x="365" y="250" width="120" height="60" as="geometry" />
        </mxCell>
        <mxCell id="Jj48SsT-pPuqCzuqrsi4-4" value="" style="rounded=0;whiteSpace=wrap;html=1;" vertex="1" parent="1">
          <mxGeometry x="365" y="310" width="120" height="60" as="geometry" />
        </mxCell>
        <mxCell id="o2Bj45P74EHcVThM-WBV-1" value="PUSH 0xBEEF" style="text;html=1;strokeColor=none;fillColor=none;align=center;verticalAlign=middle;whiteSpace=wrap;rounded=0;" vertex="1" parent="1">
          <mxGeometry x="120" y="325" width="60" height="30" as="geometry" />
        </mxCell>
        <mxCell id="K3jNXW-Zah8GcD7Rqw3E-1" value="" style="endArrow=classic;html=1;rounded=0;" edge="1" parent="1">
          <mxGeometry width="50" height="50" relative="1" as="geometry">
            <mxPoint x="516" y="220" as="sourcePoint" />
            <mxPoint x="486" y="220" as="targetPoint" />
          </mxGeometry>
        </mxCell>
        <mxCell id="K3jNXW-Zah8GcD7Rqw3E-2" value="STACK POINTER" style="text;html=1;strokeColor=none;fillColor=none;align=center;verticalAlign=middle;whiteSpace=wrap;rounded=0;" vertex="1" parent="1">
          <mxGeometry x="520" y="205" width="60" height="30" as="geometry" />
        </mxCell>
        <mxCell id="K3jNXW-Zah8GcD7Rqw3E-3" value="BASE POINTER" style="text;html=1;strokeColor=none;fillColor=none;align=center;verticalAlign=middle;whiteSpace=wrap;rounded=0;" vertex="1" parent="1">
          <mxGeometry x="520" y="145" width="60" height="30" as="geometry" />
        </mxCell>
        <mxCell id="K3jNXW-Zah8GcD7Rqw3E-4" value="" style="endArrow=classic;html=1;rounded=0;" edge="1" parent="1">
          <mxGeometry width="50" height="50" relative="1" as="geometry">
            <mxPoint x="516" y="159" as="sourcePoint" />
            <mxPoint x="486" y="159" as="targetPoint" />
          </mxGeometry>
        </mxCell>
      </root>
    </mxGraphModel>
  </diagram>
  <diagram id="l6LCRxv2ppmDsnzE_6Se" name="Push2">
    <mxGraphModel dx="2074" dy="1146" grid="1" gridSize="10" guides="1" tooltips="1" connect="1" arrows="1" fold="1" page="1" pageScale="1" pageWidth="850" pageHeight="1100" math="0" shadow="0">
      <root>
        <mxCell id="0" />
        <mxCell id="1" parent="0" />
        <mxCell id="qsU8nW2Cvl5E6VubjZnK-1" value="0x1234" style="rounded=0;whiteSpace=wrap;html=1;" vertex="1" parent="1">
          <mxGeometry x="365" y="130" width="120" height="60" as="geometry" />
        </mxCell>
        <mxCell id="qsU8nW2Cvl5E6VubjZnK-2" value="0x5678" style="rounded=0;whiteSpace=wrap;html=1;" vertex="1" parent="1">
          <mxGeometry x="365" y="190" width="120" height="60" as="geometry" />
        </mxCell>
        <mxCell id="qsU8nW2Cvl5E6VubjZnK-3" value="0xBEEF" style="rounded=0;whiteSpace=wrap;html=1;" vertex="1" parent="1">
          <mxGeometry x="365" y="250" width="120" height="60" as="geometry" />
        </mxCell>
        <mxCell id="qsU8nW2Cvl5E6VubjZnK-4" value="" style="rounded=0;whiteSpace=wrap;html=1;" vertex="1" parent="1">
          <mxGeometry x="365" y="310" width="120" height="60" as="geometry" />
        </mxCell>
        <mxCell id="qsU8nW2Cvl5E6VubjZnK-5" value="PUSH 0xBEEF" style="text;html=1;strokeColor=none;fillColor=none;align=center;verticalAlign=middle;whiteSpace=wrap;rounded=0;" vertex="1" parent="1">
          <mxGeometry x="120" y="325" width="60" height="30" as="geometry" />
        </mxCell>
        <mxCell id="qsU8nW2Cvl5E6VubjZnK-6" value="" style="curved=1;endArrow=classic;html=1;rounded=0;" edge="1" parent="1">
          <mxGeometry width="50" height="50" relative="1" as="geometry">
            <mxPoint x="150" y="320" as="sourcePoint" />
            <mxPoint x="360" y="280" as="targetPoint" />
            <Array as="points">
              <mxPoint x="200" y="320" />
              <mxPoint x="150" y="270" />
            </Array>
          </mxGeometry>
        </mxCell>
        <mxCell id="noKH_6vreqy2PT-Vk3fR-1" value="" style="endArrow=classic;html=1;rounded=0;" edge="1" parent="1">
          <mxGeometry width="50" height="50" relative="1" as="geometry">
            <mxPoint x="516" y="281" as="sourcePoint" />
            <mxPoint x="486" y="281" as="targetPoint" />
          </mxGeometry>
        </mxCell>
        <mxCell id="noKH_6vreqy2PT-Vk3fR-2" value="STACK POINTER" style="text;html=1;strokeColor=none;fillColor=none;align=center;verticalAlign=middle;whiteSpace=wrap;rounded=0;" vertex="1" parent="1">
          <mxGeometry x="520" y="270" width="60" height="30" as="geometry" />
        </mxCell>
        <mxCell id="noKH_6vreqy2PT-Vk3fR-3" value="BASE POINTER" style="text;html=1;strokeColor=none;fillColor=none;align=center;verticalAlign=middle;whiteSpace=wrap;rounded=0;" vertex="1" parent="1">
          <mxGeometry x="520" y="145" width="60" height="30" as="geometry" />
        </mxCell>
        <mxCell id="noKH_6vreqy2PT-Vk3fR-4" value="" style="endArrow=classic;html=1;rounded=0;" edge="1" parent="1">
          <mxGeometry width="50" height="50" relative="1" as="geometry">
            <mxPoint x="516" y="159" as="sourcePoint" />
            <mxPoint x="486" y="159" as="targetPoint" />
          </mxGeometry>
        </mxCell>
        <mxCell id="ddw7-P7j0W4HAoxFc-rm-1" value="" style="labelPosition=right;align=left;strokeWidth=1;shape=mxgraph.mockup.markup.curlyBrace;html=1;shadow=0;dashed=0;strokeColor=#999999;direction=south;" vertex="1" parent="1">
          <mxGeometry x="610" y="130" width="20" height="180" as="geometry" />
        </mxCell>
        <mxCell id="ddw7-P7j0W4HAoxFc-rm-2" value="STACK FRAME" style="text;html=1;align=center;verticalAlign=middle;resizable=0;points=[];autosize=1;strokeColor=none;fillColor=none;" vertex="1" parent="1">
          <mxGeometry x="640" y="205" width="110" height="30" as="geometry" />
        </mxCell>
      </root>
    </mxGraphModel>
  </diagram>
  <diagram id="nQyGc0kmmc5M0WgAtmUw" name="Pop">
    <mxGraphModel dx="2074" dy="1146" grid="1" gridSize="10" guides="1" tooltips="1" connect="1" arrows="1" fold="1" page="1" pageScale="1" pageWidth="850" pageHeight="1100" math="0" shadow="0">
      <root>
        <mxCell id="0" />
        <mxCell id="1" parent="0" />
        <mxCell id="73Nl0pO4lCSLcJTyqsgl-1" value="0x1234" style="rounded=0;whiteSpace=wrap;html=1;" vertex="1" parent="1">
          <mxGeometry x="365" y="130" width="120" height="60" as="geometry" />
        </mxCell>
        <mxCell id="73Nl0pO4lCSLcJTyqsgl-2" value="0x5678" style="rounded=0;whiteSpace=wrap;html=1;" vertex="1" parent="1">
          <mxGeometry x="365" y="190" width="120" height="60" as="geometry" />
        </mxCell>
        <mxCell id="73Nl0pO4lCSLcJTyqsgl-3" value="0xBEEF" style="rounded=0;whiteSpace=wrap;html=1;" vertex="1" parent="1">
          <mxGeometry x="365" y="250" width="120" height="60" as="geometry" />
        </mxCell>
        <mxCell id="73Nl0pO4lCSLcJTyqsgl-4" value="" style="rounded=0;whiteSpace=wrap;html=1;" vertex="1" parent="1">
          <mxGeometry x="365" y="310" width="120" height="60" as="geometry" />
        </mxCell>
        <mxCell id="73Nl0pO4lCSLcJTyqsgl-5" value="POP REG" style="text;html=1;strokeColor=none;fillColor=none;align=center;verticalAlign=middle;whiteSpace=wrap;rounded=0;" vertex="1" parent="1">
          <mxGeometry x="120" y="325" width="60" height="30" as="geometry" />
        </mxCell>
        <mxCell id="73Nl0pO4lCSLcJTyqsgl-6" value="" style="curved=1;endArrow=classic;html=1;rounded=0;" edge="1" parent="1">
          <mxGeometry width="50" height="50" relative="1" as="geometry">
            <mxPoint x="150" y="320" as="sourcePoint" />
            <mxPoint x="360" y="280" as="targetPoint" />
            <Array as="points">
              <mxPoint x="200" y="320" />
              <mxPoint x="150" y="270" />
            </Array>
          </mxGeometry>
        </mxCell>
        <mxCell id="73Nl0pO4lCSLcJTyqsgl-7" value="" style="endArrow=classic;html=1;rounded=0;" edge="1" parent="1">
          <mxGeometry width="50" height="50" relative="1" as="geometry">
            <mxPoint x="516" y="220" as="sourcePoint" />
            <mxPoint x="486" y="220" as="targetPoint" />
          </mxGeometry>
        </mxCell>
        <mxCell id="73Nl0pO4lCSLcJTyqsgl-8" value="STACK POINTER" style="text;html=1;strokeColor=none;fillColor=none;align=center;verticalAlign=middle;whiteSpace=wrap;rounded=0;" vertex="1" parent="1">
          <mxGeometry x="520" y="205" width="60" height="30" as="geometry" />
        </mxCell>
        <mxCell id="73Nl0pO4lCSLcJTyqsgl-9" value="BASE POINTER" style="text;html=1;strokeColor=none;fillColor=none;align=center;verticalAlign=middle;whiteSpace=wrap;rounded=0;" vertex="1" parent="1">
          <mxGeometry x="520" y="145" width="60" height="30" as="geometry" />
        </mxCell>
        <mxCell id="73Nl0pO4lCSLcJTyqsgl-10" value="" style="endArrow=classic;html=1;rounded=0;" edge="1" parent="1">
          <mxGeometry width="50" height="50" relative="1" as="geometry">
            <mxPoint x="516" y="159" as="sourcePoint" />
            <mxPoint x="486" y="159" as="targetPoint" />
          </mxGeometry>
        </mxCell>
        <mxCell id="73Nl0pO4lCSLcJTyqsgl-11" value="" style="labelPosition=right;align=left;strokeWidth=1;shape=mxgraph.mockup.markup.curlyBrace;html=1;shadow=0;dashed=0;strokeColor=#999999;direction=south;" vertex="1" parent="1">
          <mxGeometry x="610" y="130" width="20" height="120" as="geometry" />
        </mxCell>
        <mxCell id="73Nl0pO4lCSLcJTyqsgl-12" value="STACK FRAME" style="text;html=1;align=center;verticalAlign=middle;resizable=0;points=[];autosize=1;strokeColor=none;fillColor=none;" vertex="1" parent="1">
          <mxGeometry x="630" y="175" width="110" height="30" as="geometry" />
        </mxCell>
        <mxCell id="wINERGNfKjqknrailmSK-1" value="REG:&amp;nbsp;" style="rounded=0;whiteSpace=wrap;html=1;" vertex="1" parent="1">
          <mxGeometry x="60" y="420" width="120" height="60" as="geometry" />
        </mxCell>
      </root>
    </mxGraphModel>
  </diagram>
  <diagram id="5F932gF-O3ynOFYkI_Wm" name="Pop2">
    <mxGraphModel dx="2074" dy="1146" grid="1" gridSize="10" guides="1" tooltips="1" connect="1" arrows="1" fold="1" page="1" pageScale="1" pageWidth="850" pageHeight="1100" math="0" shadow="0">
      <root>
        <mxCell id="0" />
        <mxCell id="1" parent="0" />
        <mxCell id="RFb0YswGi85Jl_IOGHjy-1" value="0x1234" style="rounded=0;whiteSpace=wrap;html=1;" vertex="1" parent="1">
          <mxGeometry x="365" y="130" width="120" height="60" as="geometry" />
        </mxCell>
        <mxCell id="RFb0YswGi85Jl_IOGHjy-2" value="0x5678" style="rounded=0;whiteSpace=wrap;html=1;" vertex="1" parent="1">
          <mxGeometry x="365" y="190" width="120" height="60" as="geometry" />
        </mxCell>
        <mxCell id="RFb0YswGi85Jl_IOGHjy-3" value="0xBEEF" style="rounded=0;whiteSpace=wrap;html=1;" vertex="1" parent="1">
          <mxGeometry x="365" y="250" width="120" height="60" as="geometry" />
        </mxCell>
        <mxCell id="RFb0YswGi85Jl_IOGHjy-4" value="" style="rounded=0;whiteSpace=wrap;html=1;" vertex="1" parent="1">
          <mxGeometry x="365" y="310" width="120" height="60" as="geometry" />
        </mxCell>
        <mxCell id="RFb0YswGi85Jl_IOGHjy-7" value="" style="endArrow=classic;html=1;rounded=0;" edge="1" parent="1">
          <mxGeometry width="50" height="50" relative="1" as="geometry">
            <mxPoint x="516" y="220" as="sourcePoint" />
            <mxPoint x="486" y="220" as="targetPoint" />
          </mxGeometry>
        </mxCell>
        <mxCell id="RFb0YswGi85Jl_IOGHjy-8" value="STACK POINTER" style="text;html=1;strokeColor=none;fillColor=none;align=center;verticalAlign=middle;whiteSpace=wrap;rounded=0;" vertex="1" parent="1">
          <mxGeometry x="520" y="205" width="60" height="30" as="geometry" />
        </mxCell>
        <mxCell id="RFb0YswGi85Jl_IOGHjy-9" value="BASE POINTER" style="text;html=1;strokeColor=none;fillColor=none;align=center;verticalAlign=middle;whiteSpace=wrap;rounded=0;" vertex="1" parent="1">
          <mxGeometry x="520" y="145" width="60" height="30" as="geometry" />
        </mxCell>
        <mxCell id="RFb0YswGi85Jl_IOGHjy-10" value="" style="endArrow=classic;html=1;rounded=0;" edge="1" parent="1">
          <mxGeometry width="50" height="50" relative="1" as="geometry">
            <mxPoint x="516" y="159" as="sourcePoint" />
            <mxPoint x="486" y="159" as="targetPoint" />
          </mxGeometry>
        </mxCell>
        <mxCell id="RFb0YswGi85Jl_IOGHjy-11" value="" style="labelPosition=right;align=left;strokeWidth=1;shape=mxgraph.mockup.markup.curlyBrace;html=1;shadow=0;dashed=0;strokeColor=#999999;direction=south;" vertex="1" parent="1">
          <mxGeometry x="610" y="130" width="20" height="120" as="geometry" />
        </mxCell>
        <mxCell id="RFb0YswGi85Jl_IOGHjy-12" value="STACK FRAME" style="text;html=1;align=center;verticalAlign=middle;resizable=0;points=[];autosize=1;strokeColor=none;fillColor=none;" vertex="1" parent="1">
          <mxGeometry x="630" y="175" width="110" height="30" as="geometry" />
        </mxCell>
        <mxCell id="trE_GkZda66t5M7GJQ9m-1" value="REG = 0xBEEF" style="rounded=0;whiteSpace=wrap;html=1;" vertex="1" parent="1">
          <mxGeometry x="60" y="420" width="120" height="60" as="geometry" />
        </mxCell>
      </root>
    </mxGraphModel>
  </diagram>
  <diagram id="Bc7N6o5KYEWIRi7tW8Ps" name="Typical Stack Frame">
    <mxGraphModel dx="2074" dy="1146" grid="1" gridSize="10" guides="1" tooltips="1" connect="1" arrows="1" fold="1" page="1" pageScale="1" pageWidth="850" pageHeight="1100" math="0" shadow="0">
      <root>
        <mxCell id="0" />
        <mxCell id="1" parent="0" />
        <mxCell id="g0Ed7FIEKYkdX_Pu7p9N-1" value="saved return address" style="rounded=0;whiteSpace=wrap;html=1;" vertex="1" parent="1">
          <mxGeometry x="365" y="130" width="120" height="60" as="geometry" />
        </mxCell>
        <mxCell id="g0Ed7FIEKYkdX_Pu7p9N-2" value="saved base pointer" style="rounded=0;whiteSpace=wrap;html=1;" vertex="1" parent="1">
          <mxGeometry x="365" y="190" width="120" height="60" as="geometry" />
        </mxCell>
        <mxCell id="g0Ed7FIEKYkdX_Pu7p9N-3" value="local variables" style="rounded=0;whiteSpace=wrap;html=1;" vertex="1" parent="1">
          <mxGeometry x="365" y="250" width="120" height="60" as="geometry" />
        </mxCell>
        <mxCell id="g0Ed7FIEKYkdX_Pu7p9N-4" value="" style="rounded=0;whiteSpace=wrap;html=1;" vertex="1" parent="1">
          <mxGeometry x="365" y="310" width="120" height="60" as="geometry" />
        </mxCell>
        <mxCell id="g0Ed7FIEKYkdX_Pu7p9N-5" value="0x000..." style="text;html=1;strokeColor=none;fillColor=none;align=center;verticalAlign=middle;whiteSpace=wrap;rounded=0;" vertex="1" parent="1">
          <mxGeometry x="270" y="360" width="60" height="30" as="geometry" />
        </mxCell>
        <mxCell id="g0Ed7FIEKYkdX_Pu7p9N-6" value="0x7ff..." style="text;html=1;strokeColor=none;fillColor=none;align=center;verticalAlign=middle;whiteSpace=wrap;rounded=0;" vertex="1" parent="1">
          <mxGeometry x="270" y="130" width="60" height="30" as="geometry" />
        </mxCell>
        <mxCell id="g0Ed7FIEKYkdX_Pu7p9N-7" value="" style="labelPosition=right;align=left;strokeWidth=1;shape=mxgraph.mockup.markup.curlyBrace;html=1;shadow=0;dashed=0;strokeColor=#999999;direction=south;" vertex="1" parent="1">
          <mxGeometry x="490" y="130" width="20" height="180" as="geometry" />
        </mxCell>
        <mxCell id="g0Ed7FIEKYkdX_Pu7p9N-8" value="Stack Frame" style="text;html=1;strokeColor=none;fillColor=none;align=center;verticalAlign=middle;whiteSpace=wrap;rounded=0;" vertex="1" parent="1">
          <mxGeometry x="510" y="205" width="60" height="30" as="geometry" />
        </mxCell>
      </root>
    </mxGraphModel>
  </diagram>
  <diagram id="fXXGVm1ROvJu2IDnwqxx" name="Function Call">
    <mxGraphModel dx="2074" dy="1146" grid="1" gridSize="10" guides="1" tooltips="1" connect="1" arrows="1" fold="1" page="1" pageScale="1" pageWidth="850" pageHeight="1100" math="0" shadow="0">
      <root>
        <mxCell id="0" />
        <mxCell id="1" parent="0" />
        <mxCell id="PtDXi4-NeCLwwq7FJXTE-1" value="saved return address" style="rounded=0;whiteSpace=wrap;html=1;" vertex="1" parent="1">
          <mxGeometry x="365" y="130" width="120" height="60" as="geometry" />
        </mxCell>
        <mxCell id="PtDXi4-NeCLwwq7FJXTE-2" value="saved base pointer" style="rounded=0;whiteSpace=wrap;html=1;" vertex="1" parent="1">
          <mxGeometry x="365" y="190" width="120" height="60" as="geometry" />
        </mxCell>
        <mxCell id="PtDXi4-NeCLwwq7FJXTE-3" value="local variables" style="rounded=0;whiteSpace=wrap;html=1;" vertex="1" parent="1">
          <mxGeometry x="365" y="250" width="120" height="60" as="geometry" />
        </mxCell>
        <mxCell id="PtDXi4-NeCLwwq7FJXTE-5" value="0x000..." style="text;html=1;strokeColor=none;fillColor=none;align=center;verticalAlign=middle;whiteSpace=wrap;rounded=0;" vertex="1" parent="1">
          <mxGeometry x="280" y="490" width="60" height="30" as="geometry" />
        </mxCell>
        <mxCell id="PtDXi4-NeCLwwq7FJXTE-6" value="0x7ff..." style="text;html=1;strokeColor=none;fillColor=none;align=center;verticalAlign=middle;whiteSpace=wrap;rounded=0;" vertex="1" parent="1">
          <mxGeometry x="270" y="130" width="60" height="30" as="geometry" />
        </mxCell>
        <mxCell id="PtDXi4-NeCLwwq7FJXTE-7" value="" style="labelPosition=right;align=left;strokeWidth=1;shape=mxgraph.mockup.markup.curlyBrace;html=1;shadow=0;dashed=0;strokeColor=#999999;direction=south;" vertex="1" parent="1">
          <mxGeometry x="490" y="130" width="20" height="180" as="geometry" />
        </mxCell>
        <mxCell id="PtDXi4-NeCLwwq7FJXTE-8" value="Last Stack Frame" style="text;html=1;strokeColor=none;fillColor=none;align=center;verticalAlign=middle;whiteSpace=wrap;rounded=0;" vertex="1" parent="1">
          <mxGeometry x="520" y="205" width="60" height="30" as="geometry" />
        </mxCell>
        <mxCell id="PtDXi4-NeCLwwq7FJXTE-9" value="saved return address" style="rounded=0;whiteSpace=wrap;html=1;" vertex="1" parent="1">
          <mxGeometry x="365" y="310" width="120" height="60" as="geometry" />
        </mxCell>
        <mxCell id="PtDXi4-NeCLwwq7FJXTE-10" value="saved base pointer" style="rounded=0;whiteSpace=wrap;html=1;" vertex="1" parent="1">
          <mxGeometry x="365" y="370" width="120" height="60" as="geometry" />
        </mxCell>
        <mxCell id="PtDXi4-NeCLwwq7FJXTE-11" value="local variables" style="rounded=0;whiteSpace=wrap;html=1;" vertex="1" parent="1">
          <mxGeometry x="365" y="430" width="120" height="60" as="geometry" />
        </mxCell>
        <mxCell id="PtDXi4-NeCLwwq7FJXTE-12" value="" style="labelPosition=right;align=left;strokeWidth=1;shape=mxgraph.mockup.markup.curlyBrace;html=1;shadow=0;dashed=0;strokeColor=#999999;direction=south;" vertex="1" parent="1">
          <mxGeometry x="490" y="310" width="20" height="180" as="geometry" />
        </mxCell>
        <mxCell id="PtDXi4-NeCLwwq7FJXTE-13" value="Current Stack Frame" style="text;html=1;strokeColor=none;fillColor=none;align=center;verticalAlign=middle;whiteSpace=wrap;rounded=0;" vertex="1" parent="1">
          <mxGeometry x="510" y="385" width="60" height="30" as="geometry" />
        </mxCell>
      </root>
    </mxGraphModel>
  </diagram>
</mxfile>
